<?xml version="1.0" encoding="UTF-8" standalone="no"?>
<svg
   xmlns:dc="http://purl.org/dc/elements/1.1/"
   xmlns:cc="http://creativecommons.org/ns#"
   xmlns:rdf="http://www.w3.org/1999/02/22-rdf-syntax-ns#"
   xmlns:svg="http://www.w3.org/2000/svg"
   xmlns="http://www.w3.org/2000/svg"
   xmlns:sodipodi="http://sodipodi.sourceforge.net/DTD/sodipodi-0.dtd"
   xmlns:inkscape="http://www.inkscape.org/namespaces/inkscape"
   width="32"
   height="32"
   shape-rendering="geometricPrecision"
   text-rendering="geometricPrecision"
   image-rendering="optimizeQuality"
   fill-rule="evenodd"
   clip-rule="evenodd"
   viewBox="0 0 32 32"
   version="1.1"
   sodipodi:docname="copy-file.svg"
   inkscape:version="0.92.4 (5da689c313, 2019-01-14)"
   id="svg3803">
  
  <path
     d="M 2.3782379,5.1030226 H 8.3719878 V 2.8578387 h 0.00399 A 1.5484288,1.2757358 0 0 1 8.8320113,1.9523392 1.5449492,1.2728689 0 0 1 9.9270792,1.5793749 v -0.00277 H 21.862889 l 0.256537,0.2119136 9.147008,7.5656358 0.254574,0.502434 V 26.522534 h -0.0038 c 0,0.354977 -0.173698,0.675552 -0.452743,0.905499 h -0.0033 c -0.27904,0.230455 -0.666793,0.37301 -1.095015,0.373566 v 0.0027 h -5.994555 v 2.083531 h -0.004 c 0,0.354979 -0.1737,0.675553 -0.4528,0.905454 h -0.0032 a 1.5449492,1.2728689 0 0 1 -1.095069,0.373011 v 0.0028 H 2.3782379 v -0.0028 A 1.5484288,1.2757358 0 0 1 1.2791844,30.790582 1.5449492,1.2728689 0 0 1 0.82644162,29.888366 h -0.003313 V 6.3842609 h 0.003368 c 0,-0.3528038 0.17431718,-0.6734259 0.45599848,-0.9054996 C 1.5615987,5.2488144 1.9493507,5.1062595 2.3782418,5.1057509 v -0.00277 z m 7.7291231,0 h 4.206631 l 0.256537,0.2124224 9.146391,7.565081 0.254575,0.502988 V 26.37447 h 5.814101 V 10.303299 h -7.11862 c -0.519697,-5.17e-4 -0.991689,-0.17913 -1.334377,-0.4669229 A 1.9402784,1.5985769 0 0 1 20.778387,8.7156803 h -6.53e-4 V 3.00585 H 10.107417 V 5.1029764 Z M 20.812229,2.2909479 h 0.69334 l 9.147686,7.5656353 v 0.4183248 h -7.986334 c -1.020203,0 -1.854749,-0.7017701 -1.854749,-1.5597361 v -6.424224 z m 1.423838,11.5387731 h -7.118005 c -0.519697,0 -0.991691,-0.178575 -1.334376,-0.466414 A 1.9418498,1.5998716 0 0 1 13.22953,12.242103 h -6.53e-4 V 6.5327809 H 2.5585603 V 29.739798 H 22.236067 v -15.91003 z"
     id="path3763"
     inkscape:connector-curvature="0"
     style="fill-rule:nonzero;stroke-width:0.0509418" />
</svg>
