<?xml version="1.0" encoding="utf-8"?>
<!-- Svg Vector Icons : http://www.onlinewebfonts.com/icon -->
<!DOCTYPE svg PUBLIC "-//W3C//DTD SVG 1.1//EN" "http://www.w3.org/Graphics/SVG/1.1/DTD/svg11.dtd">
<svg version="1.1" xmlns="http://www.w3.org/2000/svg" xmlns:xlink="http://www.w3.org/1999/xlink" x="0px" y="0px" viewBox="0 0 1000 1000" enable-background="new 0 0 1000 1000" xml:space="preserve">
<metadata> Svg Vector Icons : http://www.onlinewebfonts.com/icon </metadata>
<g><path d="M500,990c-130.9,0-253.9-51-346.5-143.5C61,753.9,10,630.9,10,500c0-130.9,51-253.9,143.5-346.5C246.1,61,369.1,10,500,10c130.9,0,253.9,51,346.5,143.5S990,369.1,990,500c0,130.9-51,253.9-143.5,346.5S630.9,990,500,990z M500,65.6C260.5,65.6,65.6,260.5,65.6,500S260.5,934.4,500,934.4c239.5,0,434.4-194.9,434.4-434.4S739.5,65.6,500,65.6z M669.4,248.5C621,215.8,562.8,196.8,500,196.8c-167.5,0-303.2,135.8-303.2,303.2c0,62.8,19,121,51.7,169.4L669.4,248.5z M755.5,336.6L336.6,755.5c47.2,30.2,103.2,47.7,163.4,47.7c167.5,0,303.2-135.8,303.2-303.2C803.2,439.8,785.7,383.8,755.5,336.6z"/></g>
</svg>