<?xml version="1.0" encoding="utf-8"?>
<!-- Svg Vector Icons : http://www.onlinewebfonts.com/icon -->
<!DOCTYPE svg PUBLIC "-//W3C//DTD SVG 1.1//EN" "http://www.w3.org/Graphics/SVG/1.1/DTD/svg11.dtd">
<svg version="1.1" xmlns="http://www.w3.org/2000/svg" xmlns:xlink="http://www.w3.org/1999/xlink" x="0px" y="0px" viewBox="0 0 1000 1000" enable-background="new 0 0 1000 1000" xml:space="preserve">
<metadata> Svg Vector Icons : http://www.onlinewebfonts.com/icon </metadata>
<g><path d="M500,10C229.4,10,10,229.4,10,500c0,270.6,219.4,490,490,490s490-219.4,490-490C990,229.4,770.6,10,500,10z M500,867.5c-202.9,0-367.5-164.6-367.5-367.5c0-203,164.6-367.5,367.5-367.5S867.5,297,867.5,500C867.5,702.9,702.9,867.5,500,867.5z"/><path d="M733.2,357.2c-24.3-19.8-26.7-20.4-54.6-34.5c-12.5-6.4-30.9,10-40,22.3L454.1,603.1l-98.9-145.5c-9.1-12.2-25.8-16.7-38.3-10.9c-28.5,14.7-25.7,14.2-50.1,33.5c-11.1,9-11.8,25-2.8,37.1c0,0,111.4,162.4,132.3,189.2c30.6,38.5,86.3,36.5,115.5,0c21.6-27.5,224.1-312.8,224.1-312.8C745,381.5,744.3,365.5,733.2,357.2z"/></g>
</svg>