<?xml version="1.0" encoding="UTF-8" standalone="no"?>
<svg version="1.1"
  xmlns="http://www.w3.org/2000/svg"
  xmlns:xlink="http://www.w3.org/1999/xlink"
  viewBox="0 0 48 48"
  style="enable-background:new 0 0 48 48;fill:#d40000;" xml:space="preserve">
<path d="M 47.144081,35.19636 28.749773,6.374126 C 27.712466,4.748554 25.941795,3.778 24.01336,3.778 c -1.92859,0 -3.699259,0.970554 -4.736256,2.596126 L 0.88263822,35.196207 c -1.10406038,1.730182 -1.17730385,3.923314 -0.19052575,5.723806 0.98677813,1.79972 2.87472903,2.91784 4.92709173,2.91784 H 42.407671 c 2.052363,0 3.940313,-1.117966 4.927401,-2.918304 0.986315,-1.800028 0.913069,-3.993004 -0.190991,-5.723189 z M 24.01336,38.986322 c -1.691553,0 -3.062628,-1.371226 -3.062628,-3.062626 0,-1.691553 1.371229,-3.062783 3.062628,-3.062783 1.691553,0 3.062628,1.37123 3.062628,3.062783 0,1.6914 -1.371229,3.062626 -3.062628,3.062626 z m 4.245032,-21.282481 -1.508446,10.156274 c -0.222049,1.495001 -1.613983,2.526899 -3.10883,2.304851 -1.207744,-0.179402 -2.113244,-1.126311 -2.299443,-2.27024 L 19.703584,17.758541 c -0.38136,-2.360016 1.222579,-4.582352 3.582595,-4.963713 2.360016,-0.381361 4.582354,1.222579 4.963712,3.582595 0.0717,0.444405 0.06922,0.903181 0.0085,1.326418 z"/>
</svg>
