<?xml version="1.0" encoding="UTF-8" standalone="no"?>
<svg version="1.1" xmlns="http://www.w3.org/2000/svg" xmlns:xlink="http://www.w3.org/1999/xlink"
viewBox="0 0 47 47" style="enable-background:new 0 0 47 47;fill:#80b3ff;" xml:space="preserve">
	<path d="M 43.847629,12.703185 C 41.746201,9.4081643 38.895745,6.7992804 35.295514,4.8760411 31.694639,2.9528999 27.763782,1.9915254 23.499941,1.9915254 c -4.263412,0 -8.195448,0.9613745 -11.795679,2.8845157 C 8.1038163,6.7989862 5.2533606,9.4078706 3.1519306,12.703185 1.0503935,15.998694 0,19.597498 0,23.499299 c 0,3.901999 1.050715,7.500211 3.1516091,10.795916 2.1013229,3.295022 4.9517781,5.903907 8.5522239,7.82734 3.60066,1.923046 7.532375,2.884516 11.795681,2.884516 4.263304,0 8.195447,-0.96147 11.795893,-2.884516 3.600231,-1.922747 6.450579,-4.532318 8.551797,-7.82734 2.100894,-3.29541 3.15118,-6.894115 3.15118,-10.795916 1.09e-4,-3.902194 -1.050286,-7.501095 -3.150755,-10.796114 z M 19.583231,7.3681009 c 0,-0.2615066 0.09163,-0.4760282 0.275432,-0.6439569 0.18348,-0.167831 0.418293,-0.25209 0.7038,-0.25209 h 5.875172 c 0.285292,0 0.520107,0.084259 0.703157,0.25209 0.18337,0.1679287 0.275754,0.3824503 0.275754,0.6439569 v 4.4809211 c 0,0.26131 -0.09238,0.476125 -0.275754,0.643859 -0.18305,0.167929 -0.417757,0.251894 -0.703157,0.251894 h -5.875172 c -0.285507,0 -0.520215,-0.08397 -0.7038,-0.251894 -0.183799,-0.167635 -0.275432,-0.382549 -0.275432,-0.643859 z M 31.332719,36.941668 c 0,0.261114 -0.09249,0.476029 -0.275432,0.643566 -0.18262,0.168125 -0.417435,0.25209 -0.70337,0.25209 H 16.645645 c -0.285828,0 -0.520214,-0.08396 -0.703799,-0.25209 -0.183479,-0.167537 -0.275218,-0.382353 -0.275218,-0.643858 v -4.480922 c 0,-0.2619 0.09174,-0.476028 0.275218,-0.644153 0.183585,-0.167538 0.418292,-0.252091 0.703799,-0.252091 h 2.937586 v -8.961252 h -2.937586 c -0.285828,0 -0.520107,-0.08386 -0.703799,-0.251895 -0.183479,-0.167829 -0.275218,-0.382647 -0.275218,-0.644152 v -4.480627 c 0,-0.261507 0.09174,-0.476028 0.275218,-0.644154 0.1838,-0.168027 0.418507,-0.251893 0.703799,-0.251893 h 9.79199 c 0.285292,0 0.520107,0.08386 0.703157,0.251893 0.18337,0.168126 0.275754,0.382647 0.275754,0.644154 v 14.338614 h 2.936622 c 0.286042,0 0.520749,0.08386 0.704119,0.251697 0.182623,0.167929 0.275005,0.382647 0.275005,0.644153 v 4.481019 h 3.46e-4 z" />
</svg>
