<?xml version="1.0" encoding="iso-8859-1"?>
<!-- Generator: Adobe Illustrator 19.0.0, SVG Export Plug-In . SVG Version: 6.00 Build 0)  -->
<svg version="1.1" id="Layer_1" xmlns="http://www.w3.org/2000/svg" xmlns:xlink="http://www.w3.org/1999/xlink" x="0px" y="0px"
	 viewBox="0 0 245 245" style="enable-background:new 0 0 245 245;" xml:space="preserve">
<g id="XMLID_228_">
	<path id="XMLID_229_" d="M105,82.5h120c11.046,0,20-8.954,20-20s-8.954-20-20-20H105c-11.046,0-20,8.954-20,20
		S93.954,82.5,105,82.5z"/>
	<path id="XMLID_230_" d="M225,102.5H105c-11.046,0-20,8.954-20,20s8.954,20,20,20h120c11.046,0,20-8.954,20-20
		S236.046,102.5,225,102.5z"/>
	<path id="XMLID_231_" d="M225,162.5H105c-11.046,0-20,8.954-20,20s8.954,20,20,20h120c11.046,0,20-8.954,20-20
		S236.046,162.5,225,162.5z"/>
	<path id="XMLID_232_" d="M30,37.5H20c-11.046,0-20,8.954-20,20v10c0,11.046,8.954,20,20,20h10c11.046,0,20-8.954,20-20v-10
		C50,46.454,41.046,37.5,30,37.5z"/>
	<path id="XMLID_233_" d="M30,97.5H20c-11.046,0-20,8.954-20,20v10c0,11.046,8.954,20,20,20h10c11.046,0,20-8.954,20-20v-10
		C50,106.454,41.046,97.5,30,97.5z"/>
	<path id="XMLID_235_" d="M30,157.5H20c-11.046,0-20,8.954-20,20v10c0,11.046,8.954,20,20,20h10c11.046,0,20-8.954,20-20v-10
		C50,166.454,41.046,157.5,30,157.5z"/>
</g>
<g>
</g>
<g>
</g>
<g>
</g>
<g>
</g>
<g>
</g>
<g>
</g>
<g>
</g>
<g>
</g>
<g>
</g>
<g>
</g>
<g>
</g>
<g>
</g>
<g>
</g>
<g>
</g>
<g>
</g>
</svg>
