<?xml version="1.0" encoding="UTF-8" standalone="no"?>
<svg version="1.1" xmlns="http://www.w3.org/2000/svg" xmlns:xlink="http://www.w3.org/1999/xlink" viewBox="0 0 47 47" style="enable-background:new 0 0 47 47;fill:#8dd35f;" xml:space="preserve">
	<path d="M 44.081893,0 H 2.942022 C 1.3183291,0 0,1.3183291 0,2.9399161 V 44.083999 c 0,1.623693 1.3183291,2.93781 2.942022,2.93781 h 41.139871 c 1.623693,0 2.942022,-1.314117 2.942022,-2.93781 V 2.9399161 C 47.023915,1.3183291 45.705586,0 44.081893,0 Z m -1.676342,40.042668 c 0,1.303587 -1.05719,2.360777 -2.358671,2.360777 H 6.9875655 c -1.3141172,0 -2.3692017,-1.05719 -2.3692017,-2.360777 V 6.9833536 c 0,-1.3056934 1.0571905,-2.3649898 2.3692017,-2.3649898 H 40.04688 c 1.301481,0 2.358671,1.0571905 2.358671,2.3649898 0,0 0,33.0593144 0,33.0593144 z"/>
	<polygon
   points="17.204,5.928 9.623,13.509 6.754,10.639 5.28,12.114 9.597,16.432 9.623,16.404 9.651,16.432 18.68,7.402 "
   transform="scale(2.1059571)" />
</svg>
