<?xml version="1.0" encoding="UTF-8" standalone="no"?>
<!-- Created with Inkscape (http://www.inkscape.org/) -->

<svg xmlns:dc="http://purl.org/dc/elements/1.1/"
   xmlns:cc="http://creativecommons.org/ns#"
   xmlns:rdf="http://www.w3.org/1999/02/22-rdf-syntax-ns#"
   xmlns:svg="http://www.w3.org/2000/svg"
   xmlns="http://www.w3.org/2000/svg"
   
   width="25"
   height="25"
   viewBox="0 0 6.6145831 6.6145831"
   version="1.1">
  
  <g transform="translate(0,-290.38542)" style="fill: #000">
    <path d="m 2.7241944,296.83938 c -0.00439,-0.009 -0.2994744,-0.0109 -1.1176702,-0.0109 H 0.49510024 l -0.0600422,-0.0302 c -0.0818565,-0.0412 -0.15165937,-0.0957 -0.25147293,-0.19649 l -0.0842802,-0.085 0.02357548,-0.0697 c 0.0129997,-0.0383 0.0382289,-0.11779 0.056186,-0.17675 0.0449493,-0.14765 0.056848,-0.18465 0.0658818,-0.20536 0.004413,-0.0109 0.0186191,-0.05 0.0318394,-0.0893 0.0687466,-0.20494 0.21113986,-0.43453 0.33232631,-0.53581 0.15428143,-0.12897 0.18859931,-0.14449 0.5846144,-0.2642 l 0.3363702,-0.10171 -0.1399266,-0.0717 c -0.077007,-0.0394 -0.1600101,-0.0853 -0.1845673,-0.10203 -0.050568,-0.0343 -0.21967749,-0.2 -0.23568567,-0.23061 l -0.0110208,-0.0201 h 0.0901193 c 0.049578,0 0.1086269,-0.005 0.1312011,-0.0109 0.052771,-0.0131 0.1016854,-0.0612 0.1171758,-0.11486 0.00661,-0.0221 0.013549,-0.047 0.015975,-0.0557 0.00439,-0.0141 -0.00439,-0.0157 -0.1017973,-0.0157 -0.25520798,0 -0.41059108,-0.092 -0.50794777,-0.30089 -0.0286437,-0.0615 -0.0724918,-0.20465 -0.0647799,-0.21138 0.002206,-0.002 0.0338216,3.9e-4 0.0706185,0.005 0.0878047,0.0109 0.23600533,7.3e-4 0.32851447,-0.02 0.074364,-0.0174 0.201346,-0.0728 0.2429786,-0.10627 0.013771,-0.0117 -0.00111,-0.006 -0.040212,0.0125 -0.086923,0.0426 -0.162577,0.0598 -0.25996667,0.0597 -0.13182885,-2.7e-4 -0.22948317,-0.0218 -0.37768333,-0.0834 -0.0840591,-0.035 -0.2293841,-0.10823 -0.24593165,-0.12393 -0.005509,-0.005 0.0259989,-0.009 0.0772285,-0.009 0.39925435,0 0.73149245,-0.12322 0.88090435,-0.32669 0.081966,-0.1116 0.1011356,-0.18779 0.1444552,-0.57521 0.048032,-0.42921 0.08472,-0.65091 0.152045,-0.91974 0.1911661,-0.76274 0.5545603,-1.22881 1.0755743,-1.37944 0.1572996,-0.0455 0.2246027,-0.0534 0.4554075,-0.0532 0.2373053,10e-5 0.3344201,0.0109 0.5239447,0.0587 0.6297513,0.15849 1.0799697,0.6316 1.3241273,1.39143 0.1573886,0.48982 0.2642975,1.31867 0.2366779,1.83481 -0.028757,0.53691 -0.1594926,0.93239 -0.4062062,1.22864 l -0.055855,0.067 0.2557587,0.0704 c 0.6598605,0.18172 0.6640796,0.18299 0.730424,0.22092 0.2053782,0.11733 0.3720204,0.33946 0.5483024,0.73078 0.080094,0.17786 0.2143573,0.50393 0.2117797,0.51446 -0.00221,0.0109 -0.038226,0.0402 -0.1975344,0.16846 -0.03856,0.031 -0.09662,0.0698 -0.1289979,0.0864 l -0.05894,0.03 -1.5542171,0.005 c -0.8548277,0.003 -1.6189525,0.01 -1.6980653,0.0123 -0.1042195,0.005 -0.1455668,0.005 -0.150095,-0.003 z m 0.7908519,-0.0624 c 0.00329,-0.003 0.030077,-0.0863 0.059712,-0.18443 0.029634,-0.0981 0.165012,-0.54627 0.3007406,-0.99563 l 0.2467801,-0.81708 -0.00992,-0.1431 c -0.00552,-0.0786 -0.00992,-0.15547 -0.00992,-0.17055 v -0.0274 l -0.082628,-0.005 c -0.045389,-0.003 -0.1176718,-0.0151 -0.16055,-0.0266 l -0.078,-0.021 -0.042636,0.0307 c -0.141116,0.10203 -0.2627435,0.16662 -0.4012482,0.21298 -0.1231366,0.0412 -0.190307,0.0465 -0.2900652,0.0227 -0.1505253,-0.036 -0.2840064,-0.10628 -0.4373734,-0.23003 l -0.070289,-0.0567 -5.53e-5,0.0868 c -8.76e-5,0.15267 -0.029636,0.30068 -0.085271,0.42783 l -0.020272,0.0462 0.1642628,0.90919 c 0.090341,0.50005 0.1664664,0.91928 0.1691546,0.93163 l 0.00439,0.0225 0.3680982,-0.003 c 0.2024477,-0.002 0.3706876,-0.005 0.3738714,-0.01 z m -0.2022274,-2.19329 c 0.1067535,-0.0358 0.2125169,-0.0878 0.3146109,-0.15475 0.050237,-0.0329 0.091442,-0.062 0.09155,-0.0649 8.8e-5,-0.002 -0.022918,-0.0162 -0.051118,-0.03 -0.061035,-0.03 -0.17561,-0.1029 -0.1701455,-0.10833 0.0022,-0.002 0.039329,4.7e-4 0.082737,0.005 0.043408,0.005 0.1319722,0.009 0.196884,0.006 l 0.1180358,-0.003 0.092651,-0.0757 c 0.051009,-0.0417 0.1409178,-0.1166 0.1998581,-0.16669 l 0.1071947,-0.0911 0.029195,-0.12797 c 0.082627,-0.36212 0.1164384,-0.59433 0.1241503,-0.85128 0.00551,-0.19493 -0.00439,-0.33507 -0.033606,-0.48218 -0.089015,-0.44077 -0.3546249,-0.79065 -0.789045,-1.03919 -0.043958,-0.0252 -0.08439,-0.0457 -0.089789,-0.0457 -0.00552,0 -0.2004649,0.28353 -0.4334511,0.63006 l -0.423635,0.6301 -0.00551,-0.0397 c -0.00329,-0.0218 -0.00881,-0.12248 -0.01234,-0.22378 -0.00329,-0.10127 -0.00881,-0.18413 -0.01201,-0.18408 -0.00329,6e-5 -0.045279,0.0687 -0.093865,0.15245 l -0.088356,0.15231 -0.041095,-0.0404 c -0.062908,-0.0617 -0.1138504,-0.0814 -0.2107873,-0.0813 -0.071279,10e-5 -0.086925,0.003 -0.138406,0.0277 -0.031947,0.0152 -0.069297,0.0383 -0.083068,0.0513 -0.023246,0.022 -0.024677,0.0271 -0.019937,0.075 0.00221,0.0283 0.011021,0.15381 0.018287,0.27906 0.016086,0.27411 0.026113,0.39364 0.049688,0.59381 0.019499,0.16525 0.065772,0.44568 0.079323,0.48151 0.012229,0.032 0.2120987,0.24231 0.3555615,0.37391 0.2058299,0.18884 0.3125401,0.26621 0.4409536,0.31973 0.1623677,0.0677 0.262413,0.0755 0.3958503,0.0306 z m 0.7705919,-0.38397 c 0.00221,-0.002 0.00221,-0.0136 2.518e-4,-0.0263 l -0.00329,-0.0232 -0.040211,0.0352 -0.040212,0.035 0.039883,-0.01 c 0.021923,-0.005 0.041314,-0.0109 0.043074,-0.0118 z"/>
  </g>
</svg>
