<?xml version="1.0" encoding="utf-8"?>
<!-- Svg Vector Icons : http://www.onlinewebfonts.com/icon -->
<!DOCTYPE svg PUBLIC "-//W3C//DTD SVG 1.1//EN" "http://www.w3.org/Graphics/SVG/1.1/DTD/svg11.dtd">
<svg version="1.1" xmlns="http://www.w3.org/2000/svg" xmlns:xlink="http://www.w3.org/1999/xlink" x="0px" y="0px" viewBox="0 0 1000 1000">
<g transform="translate(0.000000,511.000000) scale(0.100000,-0.100000)" style="fill: #18ffff;">
<path d="M731.2,4979.1c-235.6-63.4-437.6-231.7-550.5-461.4l-73.3-148.5l-5.9-4218c-4-3823.9-2-4227.9,27.7-4326.9c41.6-142.6,103-247.5,209.9-356.4c110.9-110.9,202-168.3,350.5-219.8c120.8-39.6,134.7-39.6,4342.7-35.6l4223.9,5.9l128.7,61.4c158.4,75.3,306.9,207.9,390.1,346.5c132.7,223.8,124.8-85.1,124.8,4467.5c0,2978.3-5.9,4152.6-21.8,4227.9c-69.3,324.8-342.6,598-667.4,667.3c-75.2,15.8-1247.6,21.8-4237.8,19.8C1400.6,5008.9,826.3,5004.9,731.2,4979.1z M8777.1,4555.4c350.5-57.4,617.9-326.7,667.4-675.3c25.7-176.2,25.7-7372.6,0-7548.8c-11.9-75.2-45.5-184.2-77.2-249.5c-75.2-148.5-261.4-320.8-411.9-382.2l-114.9-45.5H4988.8H1137.2l-128.7,61.4c-188.1,91.1-303,200-390.1,380.2l-75.2,150.5l-5.9,3812c-4,3780.3-4,3816,35.6,3946.7c39.6,128.7,130.7,271.3,233.7,366.4c87.1,77.2,275.3,164.4,396.1,182.2C1363,4577.2,8634.5,4579.1,8777.1,4555.4z"/><path d="M4713.6,2731.5c-548.5-71.3-992.1-402-1130.7-843.6c-19.8-67.3-43.6-190.1-51.5-273.3l-13.9-148.5H3864h346.6l13.9,103c29.7,221.8,156.4,398,358.4,497c281.2,140.6,683.2,112.9,908.9-59.4c287.1-221.8,356.5-762.4,144.6-1138.7c-95.1-170.3-409.9-564.4-655.5-827.8c-120.8-126.7-245.6-277.2-275.3-332.7c-67.3-124.8-105-301-122.8-582.2l-13.9-213.9h348.5h348.5v114.9c2,192.1,37.6,380.2,93.1,483.2c29.7,53.5,170.3,221.8,314.9,372.3c409.9,431.7,609.9,720.8,712.9,1019.8c69.3,204,89.1,606,39.6,841.6c-71.3,346.5-305,663.4-596.1,815.9C5519.5,2719.7,5111.6,2783,4713.6,2731.5z"/>
<path d="M4573-2177.6V-2534h356.4h356.4v356.4v356.5h-356.4H4573V-2177.6z"/>
</g>
</svg>