<?xml version="1.0" encoding="UTF-8" standalone="no"?>
<svg
   xmlns:dc="http://purl.org/dc/elements/1.1/"
   xmlns:cc="http://creativecommons.org/ns#"
   xmlns:rdf="http://www.w3.org/1999/02/22-rdf-syntax-ns#"
   xmlns:svg="http://www.w3.org/2000/svg"
   xmlns="http://www.w3.org/2000/svg"
   xmlns:sodipodi="http://sodipodi.sourceforge.net/DTD/sodipodi-0.dtd"
   xmlns:inkscape="http://www.inkscape.org/namespaces/inkscape"
   version="1.1"
   x="0px"
   y="0px"
   viewBox="0 0 1000 1000"
   enable-background="new 0 0 1000 1000"
   xml:space="preserve"
   id="svg4721"
   sodipodi:docname="request2.svg"
   inkscape:version="0.92.4 (5da689c313, 2019-01-14)"><defs
   id="defs4725" /><sodipodi:namedview
   pagecolor="#ffffff"
   bordercolor="#666666"
   borderopacity="1"
   objecttolerance="10"
   gridtolerance="10"
   guidetolerance="10"
   inkscape:pageopacity="0"
   inkscape:pageshadow="2"
   inkscape:window-width="640"
   inkscape:window-height="480"
   id="namedview4723"
   showgrid="false"
   inkscape:zoom="0.236"
   inkscape:cx="500"
   inkscape:cy="500"
   inkscape:window-x="0"
   inkscape:window-y="0"
   inkscape:window-maximized="0"
   inkscape:current-layer="svg4721" />

<g
   id="g4719"><g
     transform="translate(0.000000,511.000000) scale(0.100000,-0.100000)"
     id="g4717"><path
       d="M6684.7,4989.6c-176.1-53.8-339.9-198.1-405.9-359.4c-29.3-68.5-34.2-457.2-34.2-2198.2v-2115h486.6c266.5,0,535.5-7.3,599-14.7l112.5-17.1v2124.8v2124.8l-58.7,124.7C7264.2,4913.7,6941.4,5067.8,6684.7,4989.6z"
       id="path4707" /><path
       d="M5371.6,1830.4c-132-24.5-222.5-73.4-317.9-173.6c-146.7-151.6-158.9-217.6-166.3-826.4c-2.4-303.2,0-606.4,7.3-677.3l12.2-127.1l107.6,95.3c163.8,144.3,273.8,171.2,696.9,171.2h364.3l-7.4,569.7l-7.3,572.2l-73.3,119.8C5858.2,1764.4,5616.2,1872,5371.6,1830.4z"
       id="path4709" /><path
       d="M3860.6,1529.7c-68.5-31.8-156.5-92.9-193.2-139.4c-144.3-168.7-144.3-176.1-144.3-1134.6c2.4-765.3,7.3-892.5,41.6-978c185.8-442.6,797.1-486.6,1053.9-73.3l73.4,117.4l7.3,870.5c4.9,618.6,0,899.8-22,975.6C4581.9,1515,4193.1,1686.2,3860.6,1529.7z"
       id="path4711" /><path
       d="M2567.1,1326.7c-141.8-36.7-320.3-205.4-381.4-361.9c-19.6-48.9-29.3-313-31.8-819.1c0-699.3,2.4-753.1,48.9-855.8c198-435.2,792.2-471.9,1046.5-61.1l73.4,117.4l7.3,745.8c7.3,811.8,0,872.9-129.6,1041.6c-95.4,124.7-283.6,210.3-449.9,207.8C2674.7,1339,2591.6,1331.6,2567.1,1326.7z"
       id="path4713" /><path
       d="M5386.3,84.6c-146.7-46.4-325.2-205.4-408.3-364.3c-90.5-171.2-92.9-462.1-7.3-626c110-215.2,273.9-339.9,528.2-408.3l122.2-31.8l-151.6,9.8c-239.6,14.7-515.9,171.2-613.7,344.8c-26.9,48.9-26.9,46.5-70.9-12.2c-75.8-110-188.3-202.9-325.2-266.5c-178.5-83.1-445-85.6-616.2-9.8c-127.1,58.7-327.6,232.3-352.1,305.6c-12.2,41.6-29.3,31.8-134.5-85.6c-176-198-342.3-273.9-596.6-273.9c-146.7,2.5-225,14.7-310.5,53.8l-117.4,53.8v-694.4c0-379,12.2-804.4,24.5-943.8c51.3-503.7,202.9-980.5,408.3-1283.7c210.3-308.1,550.2-559.9,846-621.1c88-17.1,608.8-24.4,1621.1-19.6l1489.1,7.3l134.5,63.6c498.8,237.2,831.3,802,958.5,1635.8c22,149.2,31.8,547.7,31.8,1430.4v1222.6l-68.5,139.4c-73.3,149.1-180.9,256.7-342.3,342.3c-100.3,56.2-119.8,56.2-1019.6,61.1C5677.3,118.9,5476.8,111.5,5386.3,84.6z"
       id="path4715" /></g></g>
</svg>